HIERARCHY
ROOT hip
{
  OFFSET 0 0 0
  CHANNELS 6 Xposition Yposition Zposition Zrotation Yrotation Xrotation
  JOINT abdomen
  {
    OFFSET 0 20.6881 -0.73152
    CHANNELS 3 Zrotation Xrotation Yrotation
    JOINT chest
    {
      OFFSET 0 11.7043 -0.48768
      CHANNELS 3 Zrotation Xrotation Yrotation
      JOINT neck
      {
        OFFSET 0 22.1894 -2.19456
        CHANNELS 3 Zrotation Xrotation Yrotation
        JOINT head
        {
          OFFSET -0.24384 7.07133 1.2192
          CHANNELS 3 Zrotation Xrotation Yrotation
          JOINT leftEye
          {
            OFFSET 4.14528 8.04674 8.04672
            CHANNELS 3 Zrotation Xrotation Yrotation
            End Site
            {
              OFFSET 1 0 0
            }
          }
          JOINT rightEye
          {
            OFFSET -3.6576 8.04674 8.04672
            CHANNELS 3 Zrotation Xrotation Yrotation
            End Site
            {
              OFFSET 1 0 0
            }
          }
        }
      }
      JOINT rCollar
      {
        OFFSET -2.68224 19.2634 -4.8768
        CHANNELS 3 Zrotation Xrotation Yrotation
        JOINT rShldr
        {
          OFFSET -8.77824 -1.95073 1.46304
          CHANNELS 3 Zrotation Xrotation Yrotation
          JOINT rForeArm
          {
            OFFSET -28.1742 -1.7115 0.48768
            CHANNELS 3 Zrotation Xrotation Yrotation
            JOINT rHand
            {
              OFFSET -22.5879 0.773209 7.07136
              CHANNELS 3 Zrotation Xrotation Yrotation
              JOINT rThumb1
              {
                OFFSET -1.2192 -0.487915 3.41376
                CHANNELS 3 Zrotation Xrotation Yrotation
                JOINT rThumb2
                {
                  OFFSET -3.37035 -0.52449 3.41376
                  CHANNELS 3 Zrotation Xrotation Yrotation
                  End Site
                  {
                    OFFSET -1.78271 -1.18214 1.43049
                  }
                }
              }
              JOINT rIndex1
              {
                OFFSET -7.75947 0.938293 5.60832
                CHANNELS 3 Zrotation Xrotation Yrotation
                JOINT rIndex2
                {
                  OFFSET -2.54057 -0.884171 1.56538
                  CHANNELS 3 Zrotation Xrotation Yrotation
                  End Site
                  {
                    OFFSET -1.62519 -0.234802 1.16502
                  }
                }
              }
              JOINT rMid1
              {
                OFFSET -8.24714 1.18213 3.41376
                CHANNELS 3 Zrotation Xrotation Yrotation
                JOINT rMid2
                {
                  OFFSET -3.10165 -0.590103 1.0647
                  CHANNELS 3 Zrotation Xrotation Yrotation
                  End Site
                  {
                    OFFSET -2.48547 -0.328903 0.83742
                  }
                }
              }
              JOINT rRing1
              {
                OFFSET -8.82822 0.546677 1.51678
                CHANNELS 3 Zrotation Xrotation Yrotation
                JOINT rRing2
                {
                  OFFSET -2.60934 -0.819778 -0.0198488
                  CHANNELS 3 Zrotation Xrotation Yrotation
                  End Site
                  {
                    OFFSET -2.33842 -0.294052 0.168128
                  }
                }
              }
              JOINT rPinky1
              {
                OFFSET -8.27202 -0.0477905 -0.4584
                CHANNELS 3 Zrotation Xrotation Yrotation
                JOINT rPinky2
                {
                  OFFSET -1.82734 -0.647385 -0.700984
                  CHANNELS 3 Zrotation Xrotation Yrotation
                  End Site
                  {
                    OFFSET -1.69225 -0.51767 -0.607171
                  }
                }
              }
            }
          }
        }
      }
      JOINT lCollar
      {
        OFFSET 2.68224 19.2634 -4.8768
        CHANNELS 3 Zrotation Xrotation Yrotation
        JOINT lShldr
        {
          OFFSET 8.77824 -1.95073 1.46304
          CHANNELS 3 Zrotation Xrotation Yrotation
          JOINT lForeArm
          {
            OFFSET 28.1742 -1.7115 0.48768
            CHANNELS 3 Zrotation Xrotation Yrotation
            JOINT lHand
            {
              OFFSET 22.5879 0.773209 7.07136
              CHANNELS 3 Zrotation Xrotation Yrotation
              JOINT lThumb1
              {
                OFFSET 1.2192 -0.487915 3.41376
                CHANNELS 3 Zrotation Xrotation Yrotation
                JOINT lThumb2
                {
                  OFFSET 3.37035 -0.52449 3.41376
                  CHANNELS 3 Zrotation Xrotation Yrotation
                  End Site
                  {
                    OFFSET 1.78271 -1.18214 1.43049
                  }
                }
              }
              JOINT lIndex1
              {
                OFFSET 7.75947 0.938293 5.60832
                CHANNELS 3 Zrotation Xrotation Yrotation
                JOINT lIndex2
                {
                  OFFSET 2.54057 -0.884171 1.56538
                  CHANNELS 3 Zrotation Xrotation Yrotation
                  End Site
                  {
                    OFFSET 1.62519 -0.234802 1.16502
                  }
                }
              }
              JOINT lMid1
              {
                OFFSET 8.24714 1.18213 3.41376
                CHANNELS 3 Zrotation Xrotation Yrotation
                JOINT lMid2
                {
                  OFFSET 3.10165 -0.590103 1.0647
                  CHANNELS 3 Zrotation Xrotation Yrotation
                  End Site
                  {
                    OFFSET 2.48547 -0.328903 0.83742
                  }
                }
              }
              JOINT lRing1
              {
                OFFSET 8.82822 0.546677 1.51678
                CHANNELS 3 Zrotation Xrotation Yrotation
                JOINT lRing2
                {
                  OFFSET 2.60934 -0.819778 -0.0198488
                  CHANNELS 3 Zrotation Xrotation Yrotation
                  End Site
                  {
                    OFFSET 2.33842 -0.294052 0.168128
                  }
                }
              }
              JOINT lPinky1
              {
                OFFSET 8.27202 -0.0477905 -0.4584
                CHANNELS 3 Zrotation Xrotation Yrotation
                JOINT lPinky2
                {
                  OFFSET 1.82734 -0.647385 -0.700984
                  CHANNELS 3 Zrotation Xrotation Yrotation
                  End Site
                  {
                    OFFSET 1.69225 -0.51767 -0.607171
                  }
                }
              }
            }
          }
        }
      }
    }
  }
  JOINT rButtock
  {
    OFFSET -8.77824 4.35084 1.2192
    CHANNELS 3 Zrotation Xrotation Yrotation
    JOINT rThigh
    {
      OFFSET 0 -1.70687 -2.19456
      CHANNELS 3 Zrotation Xrotation Yrotation
      JOINT rShin
      {
        OFFSET 0 -36.8199 0.73152
        CHANNELS 3 Zrotation Xrotation Yrotation
        JOINT rFoot
        {
          OFFSET 0.73152 -45.1104 -5.12064
          CHANNELS 3 Zrotation Xrotation Yrotation
          End Site
          {
            OFFSET -1.1221 -3.69964 12.103
          }
        }
      }
    }
  }
  JOINT lButtock
  {
    OFFSET 8.77824 4.35084 1.2192
    CHANNELS 3 Zrotation Xrotation Yrotation
    JOINT lThigh
    {
      OFFSET 0 -1.70687 -2.19456
      CHANNELS 3 Zrotation Xrotation Yrotation
      JOINT lShin
      {
        OFFSET 0 -36.8199 0.73152
        CHANNELS 3 Zrotation Xrotation Yrotation
        JOINT lFoot
        {
          OFFSET -0.73152 -45.1104 -5.12064
          CHANNELS 3 Zrotation Xrotation Yrotation
          End Site
          {
            OFFSET 1.1221 -3.69964 12.103
          }
        }
      }
    }
  }
}
MOTION
Frames:	7
Frame Time:	0.00833333
52.6712 86.0861 -13.8077 -176.751 -3.4106 -172.849 4.47364 32.2038 4.37777 -1.11834 -13.0018 0.675627 -6.39514 7.64324 -3.97147 7.28397 -24.7284 -5.40884 -0.0 0.0 0.0 -0.0 0.0 0.0 -4.75684e-14 -7.799e-15 -4.35397e-14 46.5116 23.9382 -26.6849 -25.1208 -21.3412 53.3325 -0.825732 -24.6686 -3.70558 -4.36071e-10 -1.42688e-10 -1.63056e-09 -7.14294e-10 -2.89105e-10 -2.83179e-09 -4.36075e-10 -1.42684e-10 -1.63057e-09 7.73091 5.47488 0.417314 -4.36076e-10 -1.42681e-10 -1.63056e-09 2.90554 0.965183 0.102902 -4.36066e-10 -1.42682e-10 -1.63056e-09 10.2786 0.731801 0.0259123 -4.36075e-10 -1.42683e-10 -1.63055e-09 2.22167 -0.733487 -0.20892 -4.78016e-14 -7.80674e-15 -4.39788e-14 -27.2085 -8.08442 28.626 28.3331 -33.2449 -72.4952 1.52075 -32.701 5.17737 7.94488e-10 -9.59262e-10 3.42026e-09 1.28486e-09 -1.7661e-09 5.92548e-09 7.94487e-10 -9.59264e-10 3.42026e-09 -7.73091 5.47488 -0.417314 7.94489e-10 -9.59269e-10 3.42026e-09 -2.90554 0.965183 -0.102902 7.94488e-10 -9.59264e-10 3.42026e-09 -10.2786 0.731801 -0.0259123 7.94492e-10 -9.59262e-10 3.42025e-09 -2.22167 -0.733487 0.20892 -2.03217e-16 0.0 -3.88251e-19 5.83054 -44.7564 1.58353 -0.1697 35.0407 0.565805 1.59147 16.3157 -9.91839 2.03217e-16 0.0 3.88251e-19 1.29119 -45.139 -6.9066 0.225654 30.2577 -0.220711 0.0469515 12.8636 2.64952
52.6672 83.7445 -14.9332 -176.768 -3.7051 -173.188 4.61067 32.6346 4.21721 -1.1484 -13.2164 0.635927 -6.24696 7.94264 -4.04275 7.18759 -25.9798 -5.58171 -0.0 0.0 0.0 -0.0 0.0 0.0 -6.46663e-14 1.59067e-14 -4.03036e-14 50.7972 22.5377 -28.6449 -24.4191 -19.9015 50.9638 -0.658823 -22.4176 -3.32372 -6.05295e-10 -3.77834e-10 -1.45102e-09 -1.01137e-09 -6.83832e-10 -2.52438e-09 -6.05298e-10 -3.77832e-10 -1.45103e-09 7.73091 5.47488 0.417314 -6.05299e-10 -3.7783e-10 -1.45102e-09 2.90554 0.965183 0.102902 -6.05289e-10 -3.77831e-10 -1.45102e-09 10.2786 0.731801 0.0259123 -6.05297e-10 -3.77832e-10 -1.45101e-09 2.22167 -0.733487 -0.20892 -6.49455e-14 1.58975e-14 -4.08006e-14 -29.5188 -10.0924 31.8069 28.2328 -32.253 -70.8616 1.53599 -32.8517 5.20688 7.30495e-10 -8.33935e-10 3.29393e-09 1.17705e-09 -1.53079e-09 5.70651e-09 7.30495e-10 -8.33934e-10 3.29394e-09 -7.73091 5.47488 -0.417314 7.30497e-10 -8.33935e-10 3.29393e-09 -2.90554 0.965183 -0.102902 7.30495e-10 -8.33935e-10 3.29393e-09 -10.2786 0.731801 -0.0259123 7.30498e-10 -8.33934e-10 3.29392e-09 -2.22167 -0.733487 0.20892 -2.03217e-16 0.0 -3.88251e-19 5.3438 -46.3037 -1.32403 -0.272106 39.8395 0.75587 0.0745801 11.063 -6.58388 2.03217e-16 0.0 3.88251e-19 1.56763 -47.0812 -4.80023 0.292813 35.07 -0.44216 0.363417 7.22226 -0.342092
52.678 81.6834 -15.8378 -176.709 -4.0121 -173.577 5.1533 33.071 4.06621 -1.2824 -13.3837 0.605502 -6.08504 8.404 -4.08886 7.08771 -27.5595 -5.71212 -0.0 0.0 0.0 -0.0 0.0 0.0 -5.01223e-14 2.70131e-14 -4.96325e-14 54.6952 20.7699 -30.0903 -23.64 -18.4712 48.3803 -0.453186 -19.2888 -2.81138 -6.5739e-10 -3.85856e-10 -1.17041e-09 -1.109e-09 -6.87534e-10 -2.03859e-09 -6.57391e-10 -3.85856e-10 -1.17041e-09 7.73091 5.47488 0.417314 -6.57393e-10 -3.85855e-10 -1.1704e-09 2.90554 0.965183 0.102902 -6.57384e-10 -3.85856e-10 -1.17041e-09 10.2786 0.731801 0.0259123 -6.57393e-10 -3.85856e-10 -1.1704e-09 2.22167 -0.733487 -0.20892 -5.03976e-14 2.70054e-14 -5.01011e-14 -31.888 -12.0535 34.8743 28.0969 -31.2144 -69.2294 1.5993 -33.4414 5.32468 5.34844e-10 -5.98535e-10 2.49048e-09 8.60028e-10 -1.10066e-09 4.31453e-09 5.34844e-10 -5.98534e-10 2.49048e-09 -7.73091 5.47488 -0.417314 5.34845e-10 -5.98532e-10 2.49048e-09 -2.90554 0.965183 -0.102902 5.34842e-10 -5.98534e-10 2.49048e-09 -10.2786 0.731801 -0.0259123 5.34847e-10 -5.98534e-10 2.49047e-09 -2.22167 -0.733487 0.20892 -2.03217e-16 0.0 -3.88251e-19 5.65458 -48.0188 -2.807 -0.367291 44.2087 0.931208 -0.651435 6.60562 -7.24851 2.03217e-16 0.0 3.88251e-19 2.24783 -49.3363 -3.29806 0.378249 40.0069 -0.611056 0.287205 3.04718 -0.902714
52.7555 79.7097 -16.5169 -176.412 -4.095 -173.834 5.96911 33.5123 3.92226 -1.48541 -13.5375 0.582362 -5.90693 8.9917 -4.11982 6.97006 -29.3814 -5.8282 -0.0 0.0 0.0 -0.0 0.0 0.0 -1.2874e-14 2.96208e-14 -6.52945e-14 58.2612 18.7091 -31.1237 -22.7244 -16.9324 45.5918 -0.267629 -15.4794 -2.21974 -6.30678e-10 -2.76118e-10 -7.99816e-10 -1.07304e-09 -4.89118e-10 -1.3946e-09 -6.30675e-10 -2.7612e-10 -7.99819e-10 7.73091 5.47488 0.417314 -6.30681e-10 -2.76119e-10 -7.9981e-10 2.90554 0.965183 0.102902 -6.30672e-10 -2.76121e-10 -7.99813e-10 10.2786 0.731801 0.0259123 -6.30681e-10 -2.7612e-10 -7.99806e-10 2.22167 -0.733487 -0.20892 -1.31179e-14 2.96161e-14 -6.56828e-14 -34.1985 -13.9789 37.8902 27.9023 -30.068 -67.5593 1.6956 -34.2906 5.49821 2.38413e-10 -3.63078e-10 1.20826e-09 3.81753e-10 -6.66565e-10 2.09311e-09 2.38412e-10 -3.63078e-10 1.20826e-09 -7.73091 5.47488 -0.417314 2.38413e-10 -3.63076e-10 1.20825e-09 -2.90554 0.965183 -0.102902 2.38409e-10 -3.63078e-10 1.20826e-09 -10.2786 0.731801 -0.0259123 2.38417e-10 -3.63077e-10 1.20825e-09 -2.22167 -0.733487 0.20892 -2.03217e-16 0.0 -3.88251e-19 6.59427 -49.9294 -3.32829 -0.475714 48.4618 1.12268 -1.58338 2.17729 -10.5367 2.03217e-16 0.0 3.88251e-19 3.14129 -51.8746 -2.31867 0.492431 45.2362 -0.779992 0.335179 -0.990225 0.191072
52.9335 77.7827 -17.0149 -175.858 -3.8712 -173.716 6.65607 33.9692 3.89063 -1.66291 -13.7292 0.580957 -5.73964 9.48672 -4.11799 6.84927 -31.2806 -5.90035 -0.0 0.0 0.0 -0.0 0.0 0.0 3.18639e-14 2.77558e-14 -7.80276e-14 61.4908 16.6238 -31.7526 -21.7051 -15.3553 42.8347 -0.144802 -11.5602 -1.64053 -5.88564e-10 -1.41116e-10 -4.3674e-10 -1.01019e-09 -2.48692e-10 -7.62677e-10 -5.88556e-10 -1.41121e-10 -4.36742e-10 7.73091 5.47488 0.417314 -5.88565e-10 -1.4112e-10 -4.36733e-10 2.90554 0.965183 0.102902 -5.88557e-10 -1.41123e-10 -4.36736e-10 10.2786 0.731801 0.0259123 -5.88567e-10 -1.41121e-10 -4.36727e-10 2.22167 -0.733487 -0.20892 3.16561e-14 2.77541e-14 -7.83278e-14 -36.4336 -15.6739 40.5056 27.6563 -28.8621 -65.6845 1.78658 -35.0461 5.65665 -5.88826e-11 -1.59011e-10 -9.68479e-11 -9.73554e-11 -2.89164e-10 -1.67921e-10 -5.88834e-11 -1.59011e-10 -9.68394e-11 -7.73091 5.47488 -0.417314 -5.8883e-11 -1.5901e-10 -9.68529e-11 -2.90554 0.965183 -0.102902 -5.88888e-11 -1.59011e-10 -9.68493e-11 -10.2786 0.731801 -0.0259123 -5.88777e-11 -1.59009e-10 -9.68545e-11 -2.22167 -0.733487 0.20892 -2.03217e-16 0.0 -3.88251e-19 7.86926 -52.1418 -3.08858 -0.610061 52.6132 1.33521 -2.99475 -1.68534 -14.6354 2.03217e-16 0.0 3.88251e-19 4.07584 -54.6567 -1.53635 0.639905 50.4182 -0.966466 0.644283 -4.59585 1.87971
53.2441 76.4477 -17.2688 -174.936 -3.4494 -173.25 6.80798 34.452 4.07896 -1.72015 -14.0102 0.615804 -5.61064 9.67007 -4.06516 6.74628 -33.0927 -5.89353 -0.0 0.0 0.0 -0.0 0.0 0.0 6.88767e-14 2.54442e-14 -7.85696e-14 64.3992 14.7622 -31.965 -20.6671 -13.8745 40.3249 -0.0812502 -8.1049 -1.14681 -5.94452e-10 -7.335e-11 -1.78677e-10 -1.02714e-09 -1.26363e-10 -3.1309e-10 -5.94441e-10 -7.33563e-11 -1.7868e-10 7.73091 5.47488 0.417314 -5.94452e-10 -7.33555e-11 -1.78671e-10 2.90554 0.965183 0.102902 -5.94445e-10 -7.33589e-11 -1.78674e-10 10.2786 0.731801 0.0259123 -5.94455e-10 -7.33555e-11 -1.78664e-10 2.22167 -0.733487 -0.20892 6.86869e-14 2.5444e-14 -7.88181e-14 -38.658 -17.0315 42.3351 27.354 -27.6011 -63.4298 1.82524 -35.3555 5.72264 -2.57128e-10 -1.77793e-11 -9.6895e-10 -4.16873e-10 -2.91212e-11 -1.67872e-09 -2.57128e-10 -1.77805e-11 -9.6894e-10 -7.73091 5.47488 -0.417314 -2.57128e-10 -1.77792e-11 -9.68956e-10 -2.90554 0.965183 -0.102902 -2.57135e-10 -1.77794e-11 -9.68951e-10 -10.2786 0.731801 -0.0259123 -2.57122e-10 -1.77777e-11 -9.68956e-10 -2.22167 -0.733487 0.20892 -2.03217e-16 0.0 -3.88251e-19 9.17478 -54.7455 -2.29198 -0.78523 56.6773 1.57585 -4.5014 -4.53091 -17.7384 2.03217e-16 0.0 3.88251e-19 4.97497 -57.6311 -0.549024 0.82729 55.2134 -1.18839 1.02432 -7.47312 3.10844
53.5095 74.8675 -17.2057 -174.845 -2.5555 -170.987 6.11101 34.9346 4.63917 -1.59246 -14.436 0.714494 -5.52725 9.37761 -3.93783 6.68263 -34.8031 -5.75394 -0.0 0.0 0.0 -0.0 0.0 0.0 1.04189e-13 2.12702e-14 -5.68148e-14 66.9845 12.9788 -31.6718 -19.6695 -12.5931 37.9628 -0.0518036 -5.41419 -0.766121 -7.41673e-10 -1.35395e-10 -7.826e-11 -1.28402e-09 -2.30725e-10 -1.36312e-10 -7.41663e-10 -1.354e-10 -7.82665e-11 7.73091 5.47488 0.417314 -7.41674e-10 -1.35399e-10 -7.82563e-11 2.90554 0.965183 0.102902 -7.41665e-10 -1.35402e-10 -7.82591e-11 10.2786 0.731801 0.0259123 -7.41675e-10 -1.354e-10 -7.82502e-11 2.22167 -0.733487 -0.20892 1.03982e-13 2.1269e-14 -5.70729e-14 -41.0392 -18.1908 43.201 26.9277 -26.0711 -60.6845 1.83123 -35.3268 5.72125 -3.20721e-10 2.65578e-11 -1.23357e-09 -5.19857e-10 5.03605e-11 -2.13696e-09 -3.20721e-10 2.65571e-11 -1.23356e-09 -7.73091 5.47488 -0.417314 -3.20722e-10 2.65588e-11 -1.23357e-09 -2.90554 0.965183 -0.102902 -3.20727e-10 2.65585e-11 -1.23357e-09 -10.2786 0.731801 -0.0259123 -3.20717e-10 2.65601e-11 -1.23357e-09 -2.22167 -0.733487 0.20892 -2.03217e-16 0.0 -3.88251e-19 10.8048 -58.0941 -0.41052 -1.01867 60.8231 1.8606 -5.60553 -6.1101 -19.3576 2.03217e-16 0.0 3.88251e-19 5.88991 -61.0754 0.837055 1.06577 59.6744 -1.46056 1.3052 -9.36834 3.69914
